<!--?xml version="1.0" standalone="no"?-->
              <svg id="sw-js-blob-svg" viewBox="0 0 100 100" xmlns="http://www.w3.org/2000/svg" version="1.1">
                    <defs> 
                        <linearGradient id="sw-gradient" x1="0" x2="1" y1="1" y2="0">
                            <stop id="stop1" stop-color="rgba(198.906, 198.906, 198.906, 1)" offset="0%"></stop>
                            <stop id="stop2" stop-color="rgba(85.066, 80.717, 73.539, 1)" offset="100%"></stop>
                        </linearGradient>
                    </defs>
                <path fill="url(#sw-gradient)" d="M21.6,-25.6C27.4,-20.9,31.2,-13.5,33.1,-5.4C34.9,2.6,35,11.4,31.4,18.6C27.8,25.8,20.6,31.3,12.1,35.3C3.6,39.4,-6.3,41.8,-13.5,38.5C-20.8,35.3,-25.5,26.3,-29.7,17.8C-33.9,9.2,-37.7,0.9,-36.4,-6.5C-35.2,-13.9,-28.9,-20.5,-22,-25C-15.1,-29.6,-7.6,-32.2,0.2,-32.3C7.9,-32.5,15.8,-30.4,21.6,-25.6Z" width="100%" height="100%" transform="translate(50 50)" stroke-width="0" style="transition: all 0.3s ease 0s;" stroke="url(#sw-gradient)"></path>
              </svg>